<svg xmlns="http://www.w3.org/2000/svg" xmlns:xlink="http://www.w3.org/1999/xlink" version="1.1" width="256" height="256" viewBox="0 0 256 256" xml:space="preserve">

<defs>
</defs>
<g style="stroke: none; stroke-width: 0; stroke-dasharray: none; stroke-linecap: butt; stroke-linejoin: miter; stroke-miterlimit: 10; fill: none; fill-rule: nonzero; opacity: 1;" transform="translate(1.4065934065934016 1.4065934065934016) scale(2.81 2.81)" >
	<path d="M 89.761 47.604 c -0.19 -0.223 -0.468 -0.351 -0.761 -0.351 H 72.579 v -9.122 c 1.677 1.639 4.001 1.46 5.563 0.324 c 1.69 -1.228 2.625 -3.652 1.14 -5.91 c -0.189 -0.288 -0.391 -0.56 -0.604 -0.817 c 0.323 -0.082 0.646 -0.184 0.968 -0.305 c 2.529 -0.953 3.198 -3.464 2.553 -5.451 c -0.646 -1.987 -2.661 -3.626 -5.269 -2.909 c -0.332 0.091 -0.653 0.199 -0.963 0.322 c 0.021 -0.335 0.024 -0.675 0.009 -1.021 c -0.127 -2.699 -2.308 -4.111 -4.396 -4.111 h -0.001 c -2.088 0 -4.268 1.413 -4.394 4.11 c -0.017 0.346 -0.014 0.687 0.008 1.021 c -0.31 -0.124 -0.631 -0.231 -0.963 -0.322 c -2.602 -0.712 -4.623 0.922 -5.27 2.91 c -0.646 1.987 0.024 4.497 2.553 5.45 c 0.322 0.122 0.646 0.224 0.97 0.306 c -0.214 0.257 -0.416 0.53 -0.606 0.819 c -1.484 2.257 -0.551 4.682 1.14 5.91 c 0.767 0.558 1.721 0.891 2.691 0.891 c 1.002 0 2.021 -0.358 2.872 -1.187 v 9.092 H 46 v -9.122 c 1.676 1.64 4.001 1.46 5.563 0.324 c 1.69 -1.228 2.625 -3.652 1.139 -5.91 c -0.189 -0.288 -0.391 -0.56 -0.604 -0.816 c 0.324 -0.083 0.646 -0.184 0.969 -0.306 c 2.529 -0.953 3.198 -3.464 2.553 -5.451 c -0.647 -1.987 -2.66 -3.626 -5.269 -2.909 c -0.332 0.091 -0.653 0.199 -0.964 0.322 c 0.021 -0.334 0.024 -0.675 0.009 -1.021 c -0.127 -2.699 -2.307 -4.111 -4.396 -4.111 c -2.088 0 -4.269 1.413 -4.395 4.111 c -0.016 0.346 -0.013 0.686 0.009 1.02 c -0.311 -0.124 -0.632 -0.231 -0.964 -0.322 c -2.605 -0.714 -4.623 0.923 -5.269 2.91 c -0.646 1.987 0.024 4.497 2.552 5.45 c 0.322 0.122 0.646 0.224 0.97 0.306 c -0.214 0.257 -0.416 0.53 -0.606 0.819 c -1.485 2.258 -0.551 4.682 1.139 5.91 c 0.768 0.558 1.721 0.891 2.692 0.891 c 1.002 0 2.02 -0.359 2.872 -1.187 v 9.092 H 19.421 v -9.122 c 1.677 1.639 4.001 1.458 5.563 0.324 c 1.69 -1.228 2.625 -3.652 1.139 -5.91 c -0.189 -0.288 -0.391 -0.56 -0.604 -0.816 c 0.323 -0.083 0.646 -0.184 0.968 -0.306 c 2.529 -0.953 3.198 -3.463 2.552 -5.451 c -0.646 -1.987 -2.665 -3.624 -5.269 -2.91 c -0.332 0.091 -0.653 0.199 -0.962 0.322 c 0.021 -0.335 0.024 -0.675 0.008 -1.021 c -0.126 -2.699 -2.307 -4.111 -4.396 -4.111 s -4.269 1.412 -4.396 4.111 c -0.016 0.346 -0.013 0.686 0.009 1.02 c -0.31 -0.124 -0.631 -0.231 -0.963 -0.322 c -2.608 -0.715 -4.624 0.923 -5.269 2.91 c -0.646 1.987 0.024 4.497 2.552 5.45 c 0.322 0.122 0.646 0.224 0.97 0.306 c -0.214 0.257 -0.416 0.53 -0.605 0.819 c -1.485 2.257 -0.551 4.682 1.139 5.91 c 0.767 0.557 1.721 0.891 2.692 0.891 c 1.002 0 2.02 -0.359 2.872 -1.187 v 9.092 H 1 c -0.292 0 -0.571 0.128 -0.761 0.351 s -0.273 0.518 -0.227 0.807 l 0.992 6.225 c 0.077 0.485 0.496 0.843 0.987 0.843 h 1.912 l 2.459 15.427 c 0.077 0.485 0.496 0.843 0.987 0.843 h 75.297 c 0.491 0 0.91 -0.357 0.987 -0.843 l 2.459 -15.427 h 1.913 c 0.491 0 0.91 -0.357 0.987 -0.843 l 0.992 -6.225 C 90.033 48.121 89.951 47.826 89.761 47.604 z M 69.427 36.464 c -0.955 1.192 -2.312 1.045 -3.236 0.375 c -0.924 -0.671 -1.48 -1.919 -0.644 -3.192 c 0.508 -0.771 1.094 -1.37 1.794 -1.834 c 0.374 -0.248 0.537 -0.715 0.398 -1.143 c -0.135 -0.414 -0.52 -0.691 -0.951 -0.691 c -0.015 0 -0.028 0 -0.043 0.001 c -0.846 0.037 -1.665 -0.104 -2.527 -0.429 c -1.426 -0.538 -1.708 -1.875 -1.355 -2.961 c 0.354 -1.088 1.369 -2.003 2.838 -1.6 c 0.888 0.244 1.639 0.616 2.296 1.138 c 0.352 0.28 0.846 0.292 1.21 0.026 c 0.363 -0.264 0.506 -0.738 0.349 -1.159 c -0.294 -0.788 -0.416 -1.618 -0.372 -2.539 c 0.071 -1.522 1.255 -2.205 2.396 -2.205 c 1.143 0 2.327 0.682 2.398 2.205 c 0.043 0.92 -0.079 1.751 -0.373 2.539 c -0.157 0.421 -0.015 0.895 0.349 1.159 c 0.364 0.265 0.858 0.253 1.21 -0.026 c 0.656 -0.521 1.407 -0.894 2.296 -1.138 c 1.468 -0.401 2.484 0.513 2.837 1.599 c 0.354 1.087 0.071 2.424 -1.355 2.961 c -0.862 0.325 -1.681 0.469 -2.526 0.429 c -0.458 -0.021 -0.855 0.263 -0.994 0.69 s 0.024 0.895 0.399 1.143 c 0.7 0.463 1.286 1.063 1.792 1.832 c 0.838 1.273 0.28 2.521 -0.645 3.192 c -0.923 0.671 -2.281 0.816 -3.235 -0.375 c -0.549 -0.687 -0.924 -1.397 -1.152 -2.165 v -0.533 c 0 -0.552 -0.447 -1 -1 -1 s -1 0.448 -1 1 v 0.539 C 70.35 35.069 69.976 35.779 69.427 36.464 z M 42.847 36.464 c -0.953 1.19 -2.311 1.045 -3.235 0.375 c -0.924 -0.671 -1.481 -1.919 -0.644 -3.192 c 0.507 -0.771 1.093 -1.37 1.793 -1.834 c 0.375 -0.248 0.538 -0.715 0.399 -1.143 c -0.135 -0.414 -0.52 -0.691 -0.951 -0.691 c -0.015 0 -0.029 0 -0.044 0.001 c -0.844 0.036 -1.665 -0.104 -2.526 -0.429 c -1.427 -0.538 -1.709 -1.875 -1.356 -2.961 s 1.366 -2.002 2.837 -1.599 c 0.888 0.244 1.639 0.616 2.296 1.138 c 0.352 0.281 0.848 0.292 1.21 0.026 c 0.364 -0.264 0.506 -0.738 0.349 -1.159 c -0.294 -0.785 -0.416 -1.616 -0.373 -2.538 c 0.071 -1.523 1.255 -2.205 2.397 -2.205 c 1.142 0 2.326 0.682 2.397 2.205 c 0.043 0.922 -0.078 1.752 -0.372 2.539 c -0.157 0.421 -0.015 0.895 0.349 1.159 c 0.365 0.265 0.858 0.253 1.211 -0.026 c 0.655 -0.521 1.405 -0.894 2.295 -1.138 c 1.468 -0.401 2.484 0.513 2.837 1.599 c 0.354 1.087 0.071 2.424 -1.355 2.961 c -0.862 0.325 -1.686 0.469 -2.525 0.429 c -0.449 -0.021 -0.855 0.262 -0.995 0.69 c -0.139 0.427 0.024 0.895 0.398 1.143 c 0.7 0.464 1.286 1.063 1.793 1.832 c 0.838 1.273 0.28 2.521 -0.645 3.192 c -0.923 0.671 -2.281 0.816 -3.235 -0.375 c -0.55 -0.687 -0.925 -1.397 -1.152 -2.164 v -0.534 c 0 -0.552 -0.448 -1 -1 -1 s -1 0.448 -1 1 v 0.54 C 43.771 35.07 43.396 35.779 42.847 36.464 z M 16.268 36.464 c -0.953 1.19 -2.312 1.045 -3.236 0.375 c -0.924 -0.671 -1.481 -1.919 -0.644 -3.193 c 0.506 -0.77 1.093 -1.369 1.793 -1.833 c 0.375 -0.248 0.538 -0.715 0.399 -1.143 c -0.135 -0.414 -0.52 -0.691 -0.951 -0.691 c -0.015 0 -0.029 0 -0.044 0.001 c -0.845 0.036 -1.665 -0.104 -2.526 -0.429 c -1.426 -0.538 -1.708 -1.875 -1.355 -2.961 c 0.354 -1.086 1.368 -2.002 2.837 -1.599 c 0.888 0.244 1.639 0.616 2.295 1.138 c 0.354 0.281 0.847 0.291 1.21 0.026 s 0.506 -0.738 0.349 -1.159 c -0.294 -0.787 -0.416 -1.617 -0.373 -2.538 c 0.071 -1.523 1.255 -2.205 2.397 -2.205 s 2.326 0.682 2.397 2.205 c 0.043 0.921 -0.078 1.751 -0.372 2.538 c -0.158 0.421 -0.015 0.895 0.349 1.159 c 0.363 0.264 0.858 0.253 1.21 -0.026 c 0.655 -0.521 1.406 -0.894 2.295 -1.138 c 1.47 -0.405 2.484 0.513 2.837 1.599 c 0.353 1.087 0.071 2.424 -1.355 2.961 c -0.862 0.325 -1.685 0.469 -2.526 0.429 c -0.447 -0.008 -0.855 0.263 -0.995 0.69 c -0.139 0.427 0.024 0.895 0.399 1.143 c 0.7 0.463 1.286 1.062 1.792 1.832 c 0.838 1.273 0.281 2.521 -0.644 3.192 c -0.925 0.671 -2.284 0.816 -3.235 -0.374 c -0.549 -0.687 -0.924 -1.396 -1.152 -2.162 v -0.536 c 0 -0.552 -0.448 -1 -1 -1 s -1 0.448 -1 1 v 0.539 C 17.192 35.069 16.817 35.778 16.268 36.464 z M 81.795 69.747 H 8.204 l -2.275 -14.27 H 84.07 L 81.795 69.747 z M 87.154 53.478 h -1.912 H 4.757 H 2.845 l -0.673 -4.225 h 85.656 L 87.154 53.478 z" style="stroke: none; stroke-width: 1; stroke-dasharray: none; stroke-linecap: butt; stroke-linejoin: miter; stroke-miterlimit: 10; fill: rgb(0,0,0); fill-rule: nonzero; opacity: 1;" transform=" matrix(1 0 0 1 0 0) " stroke-linecap="round" />
	<circle cx="45" cy="29.43" r="2" style="stroke: none; stroke-width: 1; stroke-dasharray: none; stroke-linecap: butt; stroke-linejoin: miter; stroke-miterlimit: 10; fill: rgb(0,0,0); fill-rule: nonzero; opacity: 1;" transform="  matrix(1 0 0 1 0 0) "/>
	<circle cx="71.58" cy="29.43" r="2" style="stroke: none; stroke-width: 1; stroke-dasharray: none; stroke-linecap: butt; stroke-linejoin: miter; stroke-miterlimit: 10; fill: rgb(0,0,0); fill-rule: nonzero; opacity: 1;" transform="  matrix(1 0 0 1 0 0) "/>
	<circle cx="18.42" cy="29.43" r="2" style="stroke: none; stroke-width: 1; stroke-dasharray: none; stroke-linecap: butt; stroke-linejoin: miter; stroke-miterlimit: 10; fill: rgb(0,0,0); fill-rule: nonzero; opacity: 1;" transform="  matrix(1 0 0 1 0 0) "/>
</g>
</svg>